<?xml version="1.0" encoding="iso-8859-1"?>
<!-- Generator: Adobe Illustrator 21.0.0, SVG Export Plug-In . SVG Version: 6.00 Build 0)  -->
<svg xmlns="http://www.w3.org/2000/svg" xmlns:xlink="http://www.w3.org/1999/xlink" version="1.1" id="Capa_1" x="0px" y="0px" viewBox="0 0 512 512" style="enable-background:new 0 0 512 512;" xml:space="preserve" width="512" height="512">
<path d="M0,39.441v316.053h88.283v117.066l113.38-117.066H512V39.441H0z M148.181,237.533c-14.159,0-28.439-3.51-36.91-8.713
 l9.197-20.815c7.987,4.72,18.637,7.745,27.955,7.745c8.108,0,11.013-1.694,11.013-4.599c0-10.65-46.834-2.058-46.834-33.643
  c0-15.732,13.191-28.56,39.452-28.56c11.376,0,23.114,2.42,31.949,7.382l-8.592,20.694c-8.35-4.236-16.216-6.293-23.598-6.293
   c-8.351,0-11.013,2.42-11.013,5.325c0,10.166,46.833,1.694,46.833,32.917C187.633,224.462,174.442,237.533,148.181,237.533z
    M277.787,235.596l-0.242-38.604l-18.395,30.98h-12.586l-18.395-29.649v37.273h-26.019v-84.712h23.478l27.592,45.14l26.866-45.14
     h23.478l0.242,84.712H277.787z M355.231,237.533c-14.159,0-28.439-3.51-36.91-8.713l9.197-20.815
      c7.987,4.72,18.637,7.745,27.955,7.745c8.108,0,11.013-1.694,11.013-4.599c0-10.65-46.834-2.058-46.834-33.643
       c0-15.732,13.191-28.56,39.452-28.56c11.376,0,23.114,2.42,31.949,7.382l-8.592,20.694c-8.35-4.236-16.216-6.293-23.598-6.293
        c-8.351,0-11.013,2.42-11.013,5.325c0,10.166,46.833,1.694,46.833,32.917C394.683,224.462,381.492,237.533,355.231,237.533z"/>
</svg>
