<svg id="Capa_1" enable-background="new 0 0 512 512" height="512" viewBox="0 0 512 512" width="512" xmlns="http://www.w3.org/2000/svg"><g>
    <path d="m344.921 208.894c-8.453 3.49-17.705 5.428-27.403 5.428h-123.036c-9.699 0-18.95-1.938-27.403-5.428v28.487c0
     52.725 39.89 95.619 88.921 95.619s88.921-42.895 88.921-95.619z"/><path d="m236.255 361.259 4.125 27.619h31.24l4.125-27.619c-6.425
      1.139-13.019 1.741-19.745 1.741s-13.32-.602-19.745-1.741z"/><path d="m194.482 184.321h123.035c22.681 0 41.226-18.048
       42.027-40.537h-207.09c.803 22.489 19.348 40.537 42.028 40.537z"/><path d="m256 77.697c-11.299 0-20.49 9.191-20.49
       20.49v15.597h40.98v-15.596c0-11.299-9.191-20.491-20.49-20.491z"/><path d="m211.925 401.451-7.61-50.949c-13.419-6.869-25.434-16.329-35.471-27.755l-14.404
        6.757 43.234 100.897z"/><path d="m106.333 432.947 30-.018.046 79.07h63.624l-72.737-169.746-44.955 21.09c-30.264
        14.199-49.819 44.974-49.819 78.402v70.255h73.887z"/><path d="m429.688 363.344-44.955-21.09-72.736 169.746h63.659l-.046-79.053
        30-.018.046 79.07h73.852v-70.254c0-33.428-19.556-64.202-49.82-78.401z"/><path d="m298.763 466.718-23.547-47.84h-38.432l-23.547
         47.84 19.403 45.282h46.719z"/><path d="m130.908 113.486.326.298h74.276v-15.596c0-27.841 22.649-50.49 50.49-50.49s50.49 22.649
          50.49 50.49v15.597h74.276l.326-.298c14.864-13.599 11.994-37.772-5.641-47.512l-119.451-65.975-119.451 65.974c-17.635
          9.74-20.505 33.914-5.641 47.512z"/><path d="m343.155 322.748c-10.037 11.426-22.052 20.886-35.471 27.755l-7.61
           50.949 14.25 28.95 43.235-100.896z"/></g></svg>